<svg width="150" height="150" viewBox="0 0 150 150" fill="none" xmlns="http://www.w3.org/2000/svg">
  <path d="M117.188 123.75H32.8125C31.3359 123.75 30.1641 122.578 30.1641 121.102C30.1641 119.625 31.3359 118.453 32.8125 118.453H117.188C118.664 118.453 119.836 119.625 119.836 121.102C119.836 122.578 118.664 123.75 117.188 123.75Z" fill="#00022b"/>
  <path d="M75 96.0938C65.6445 96.0938 57.9688 88.418 57.9688 79.0625C57.9688 69.707 65.6445 62.0312 75 62.0312C84.3555 62.0312 92.0312 69.707 92.0312 79.0625C92.0312 88.418 84.3555 96.0938 75 96.0938ZM75 67.2656C68.5547 67.2656 63.2031 72.5781 63.2031 79.0625C63.2031 85.5469 68.5547 90.8594 75 90.8594C81.4453 90.8594 86.7969 85.5469 86.7969 79.0625C86.7969 72.5781 81.4453 67.2656 75 67.2656Z" fill="#00b8d9"/>
  <path d="M38.4375 56.7188C38.0859 56.7188 37.7344 56.6367 37.3828 56.4727C36.0938 55.8047 35.6602 54.1641 36.3281 52.875L48.8672 30.8789C49.5352 29.5898 51.1758 29.1562 52.4648 29.8242C53.7539 30.4922 54.1875 32.1328 53.5195 33.4219L40.9805 55.418C40.5469 56.2383 39.5625 56.7188 38.4375 56.7188Z" fill="#00022b"/>
  <path d="M111.562 56.7188C110.496 56.7188 109.512 56.2383 109.02 55.418L96.4805 33.4219C95.8125 32.1328 96.2461 30.4922 97.5352 29.8242C98.8242 29.1562 100.465 29.5898 101.133 30.8789L113.672 52.875C114.34 54.1641 113.906 55.8047 112.617 56.4727C112.305 56.6367 111.914 56.7188 111.562 56.7188Z" fill="#00022b"/>
  <path d="M109.102 113.156C108.75 113.156 108.398 113.074 108.047 112.91C106.758 112.242 106.324 110.602 106.992 109.312L114.258 96.5039C114.926 95.2148 116.566 94.7812 117.855 95.4492C119.145 96.1172 119.578 97.7578 118.91 99.0469L111.645 111.855C111.211 112.676 110.168 113.156 109.102 113.156Z" fill="#00022b"/>
  <path d="M40.8984 113.156C39.8321 113.156 38.8477 112.676 38.4141 111.855L31.1485 99.0469C30.4804 97.7578 30.9141 96.1172 32.2032 95.4492C33.4923 94.7812 35.1329 95.2148 35.8009 96.5039L43.0665 109.312C43.7345 110.602 43.3009 112.242 42.0118 112.91C41.6602 113.074 41.2696 113.156 40.8984 113.156Z" fill="#00022b"/>
  <path d="M75 46.1133C73.5234 46.1133 72.3516 44.9414 72.3516 43.4648V28.5938C72.3516 27.1172 73.5234 25.9453 75 25.9453C76.4766 25.9453 77.6484 27.1172 77.6484 28.5938V43.4648C77.6484 44.9414 76.4766 46.1133 75 46.1133Z" fill="#00022b"/>
</svg> 